<svg version="1.1" id="Layer_1" xmlns="http://www.w3.org/2000/svg" xmlns:xlink="http://www.w3.org/1999/xlink" x="0px" y="0px" width="34.56px" height="32px" viewBox="0 0 512 392.542" enable-background="new 0 0 512 392.542" xml:space="preserve">
          <path fill="#7c6148" d="M373.816,0c6.651,15.117,10.965,40.221,4.535,58.604c26.318,22.464,35.348,77.086,22.65,121.706
              c37.51,2.867,82.175-1.37,110.998,10.139c-26.948-3.462-63.753-10.265-98.522-7.896c-6.591,0.443-16.341-0.252-15.862,9.02
              c40.231,3.155,80.221,6.597,113.276,16.901c-32.773-5.342-72.562-13.494-113.276-14.639c-16.825,33.202-50.687,49.508-97.418,52.944
              c5.028,10.935,14.643,15.097,17.001,32.684c3.507,26.263-5.482,64.75,3.376,82.256c4.264,8.385,11.197,8.616,15.873,15.782
              c-11.448,13.555-39.828-1.512-43.053-15.782c-5.543-24.429,8.425-62.312-6.793-78.87c1.068,26.646-6.309,64.075,1.129,87.88
              c2.933,9.372,11.388,12.98,9.07,21.426c-53.202,5.401-30.979-68.863-39.667-112.691c-8.022,0.574-4.5,12.022-4.525,16.91
              c-0.231,42.801,8.758,101.505-37.374,95.781c-1.36-8.99,6.184-12.054,9.051-20.277c8.425-24.086-1.578-59.964,2.292-89.028
              c-17.616,13.263,1.84,59.621-9.07,83.385c-6.293,13.666-26.545,19.622-41.909,13.505c1.996-10.179,12.522-8.526,16.977-18.02
              c6.233-13.223,0.046-32.27,2.272-51.831c-32.597,6.5-57.872-0.938-70.238-21.416c-5.537-9.19-6.913-20.015-13.604-28.157
              c-6.657-8.153-17.289-9.252-20.378-20.277c40.367-9.715,41.909,41.542,78.17,42.812c11.11,0.403,16.891-3.225,27.18-5.623
              c2.877-12.931,9.045-22.575,18.12-29.327c-45.099-6.168-82.356-20.217-99.676-54.063c-41.012,2.021-78.538,7.503-113.291,15.768
              c31.544-11.459,70.455-15.571,112.157-16.911c-2.459-14.774-24.001-10.713-37.384-10.139C51.05,183.65,19.758,186.739,0,190.448
              c28.651-10.214,68.827-8.935,107.622-9.015c-11.861-37.208-7.75-96.311,18.131-118.32c-7.337-18.483-5.06-48.717,4.529-63.113
              c28.889,1.3,46.414,13.897,64.564,25.931c22.52-6.41,46.188-9.589,77.031-7.901c12.97,0.726,26.465,6.551,36.23,5.629
              c9.594-0.897,20.155-11.655,29.447-15.762C349.689,2.54,359.949,0.499,373.816,0z"></path>
</svg>
